<?xml version="1.0" standalone="no"?>
<!DOCTYPE svg PUBLIC "-//W3C//DTD SVG 20010904//EN"
 "http://www.w3.org/TR/2001/REC-SVG-20010904/DTD/svg10.dtd">
<svg version="1.0" xmlns="http://www.w3.org/2000/svg"
 width="260.000000pt" height="260.000000pt" viewBox="0 0 260.000000 260.000000"
 preserveAspectRatio="xMidYMid meet">
<metadata>
Created by potrace 1.11, written by Peter Selinger 2001-2013
</metadata>
<g transform="translate(0.000000,260.000000) scale(0.100000,-0.100000)"
fill="#000000" stroke="none">
<path d="M1081 2584 c-449 -75 -841 -402 -1005 -836 -58 -155 -71 -238 -70
-453 0 -192 2 -205 32 -319 124 -467 486 -824 954 -942 80 -20 138 -27 259
-31 251 -9 431 31 647 142 175 90 330 220 450 380 81 107 176 308 214 450 30
115 32 128 32 320 1 178 -2 210 -23 295 -132 526 -542 910 -1063 995 -114 18
-314 18 -427 -1z m789 -1278 l0 -864 -567 -4 c-313 -2 -569 -4 -569 -3 -1 0
-4 390 -6 868 l-4 867 573 0 573 0 0 -864z"/>
<path d="M910 1820 l0 -60 390 0 390 0 0 60 0 60 -390 0 -390 0 0 -60z"/>
<path d="M910 1470 l0 -60 390 0 390 0 0 60 0 60 -390 0 -390 0 0 -60z"/>
<path d="M910 1130 l0 -60 390 0 390 0 0 60 0 60 -390 0 -390 0 0 -60z"/>
<path d="M910 780 l0 -60 390 0 390 0 0 60 0 60 -390 0 -390 0 0 -60z"/>
</g>
</svg>
